<svg width="132" height="35" viewBox="0 0 132 35" fill="none" xmlns="http://www.w3.org/2000/svg">
<path d="M24.884 14.4C24.884 16.2 24.584 17.88 23.984 19.44C23.384 21 22.532 22.38 21.428 23.58C20.348 24.756 19.052 25.68 17.54 26.352C16.052 27.024 14.42 27.36 12.644 27.36C10.868 27.36 9.236 27.024 7.748 26.352C6.26 25.68 4.964 24.756 3.86 23.58C2.78 22.38 1.94 21 1.34 19.44C0.74 17.88 0.44 16.2 0.44 14.4C0.44 12.6 0.74 10.92 1.34 9.36C1.94 7.8 2.78 6.432 3.86 5.256C4.964 4.056 6.26 3.12 7.748 2.448C9.236 1.776 10.868 1.44 12.644 1.44C14.42 1.44 16.052 1.776 17.54 2.448C19.052 3.12 20.348 4.056 21.428 5.256C22.532 6.432 23.384 7.8 23.984 9.36C24.584 10.92 24.884 12.6 24.884 14.4ZM20.204 14.4C20.204 12.792 19.88 11.34 19.232 10.044C18.584 8.724 17.696 7.68 16.568 6.912C15.44 6.144 14.132 5.76 12.644 5.76C11.156 5.76 9.848 6.144 8.72 6.912C7.592 7.68 6.704 8.712 6.056 10.008C5.432 11.304 5.12 12.768 5.12 14.4C5.12 16.008 5.432 17.472 6.056 18.792C6.704 20.088 7.592 21.12 8.72 21.888C9.848 22.656 11.156 23.04 12.644 23.04C14.132 23.04 15.44 22.656 16.568 21.888C17.696 21.12 18.584 20.088 19.232 18.792C19.88 17.472 20.204 16.008 20.204 14.4ZM30.8164 27C30.1924 27 29.6764 26.796 29.2684 26.388C28.8604 25.956 28.6564 25.428 28.6564 24.804V9.936C28.6564 9.312 28.8604 8.796 29.2684 8.388C29.6764 7.956 30.1924 7.74 30.8164 7.74C31.4404 7.74 31.9564 7.956 32.3644 8.388C32.7724 8.796 32.9764 9.312 32.9764 9.936V13.32L32.7244 10.908C32.9884 10.332 33.3244 9.828 33.7324 9.396C34.1644 8.94 34.6444 8.568 35.1724 8.28C35.7004 7.968 36.2644 7.74 36.8644 7.596C37.4644 7.452 38.0644 7.38 38.6644 7.38C39.3844 7.38 39.9844 7.584 40.4644 7.992C40.9684 8.4 41.2204 8.88 41.2204 9.432C41.2204 10.224 41.0164 10.8 40.6084 11.16C40.2004 11.496 39.7564 11.664 39.2764 11.664C38.8204 11.664 38.4004 11.58 38.0164 11.412C37.6564 11.244 37.2364 11.16 36.7564 11.16C36.3244 11.16 35.8804 11.268 35.4244 11.484C34.9924 11.676 34.5844 11.988 34.2004 12.42C33.8404 12.852 33.5404 13.392 33.3004 14.04C33.0844 14.664 32.9764 15.408 32.9764 16.272V24.804C32.9764 25.428 32.7724 25.956 32.3644 26.388C31.9564 26.796 31.4404 27 30.8164 27ZM48.9458 24.804C48.9458 25.428 48.7298 25.956 48.2978 26.388C47.8898 26.796 47.3738 27 46.7498 27C46.1498 27 45.6458 26.796 45.2378 26.388C44.8298 25.956 44.6258 25.428 44.6258 24.804V2.556C44.6258 1.932 44.8298 1.416 45.2378 1.008C45.6698 0.575999 46.1978 0.36 46.8218 0.36C47.4458 0.36 47.9498 0.575999 48.3338 1.008C48.7418 1.416 48.9458 1.932 48.9458 2.556V24.804ZM72.3013 17.388C72.3013 19.356 71.8573 21.096 70.9693 22.608C70.1053 24.096 68.9293 25.26 67.4413 26.1C65.9773 26.94 64.3333 27.36 62.5093 27.36C60.6853 27.36 59.0293 26.94 57.5413 26.1C56.0773 25.26 54.9013 24.096 54.0133 22.608C53.1493 21.096 52.7173 19.356 52.7173 17.388C52.7173 15.42 53.1493 13.692 54.0133 12.204C54.9013 10.692 56.0773 9.516 57.5413 8.676C59.0293 7.812 60.6853 7.38 62.5093 7.38C64.3333 7.38 65.9773 7.812 67.4413 8.676C68.9293 9.516 70.1053 10.692 70.9693 12.204C71.8573 13.692 72.3013 15.42 72.3013 17.388ZM67.9813 17.388C67.9813 16.164 67.7293 15.108 67.2253 14.22C66.7453 13.308 66.0853 12.6 65.2453 12.096C64.4293 11.592 63.5173 11.34 62.5093 11.34C61.5013 11.34 60.5773 11.592 59.7373 12.096C58.9213 12.6 58.2613 13.308 57.7573 14.22C57.2773 15.108 57.0373 16.164 57.0373 17.388C57.0373 18.588 57.2773 19.644 57.7573 20.556C58.2613 21.444 58.9213 22.14 59.7373 22.644C60.5773 23.148 61.5013 23.4 62.5093 23.4C63.5173 23.4 64.4293 23.148 65.2453 22.644C66.0853 22.14 66.7453 21.444 67.2253 20.556C67.7293 19.644 67.9813 18.588 67.9813 17.388ZM76.7704 7.74C77.2264 7.74 77.6464 7.86 78.0304 8.1C78.4144 8.316 78.7024 8.652 78.8944 9.108L84.1864 21.204L83.3944 21.564L88.7944 9.144C89.2024 8.184 89.8384 7.728 90.7024 7.776C91.3024 7.776 91.7824 7.968 92.1424 8.352C92.5264 8.712 92.7184 9.168 92.7184 9.72C92.7184 9.888 92.6824 10.068 92.6104 10.26C92.5624 10.452 92.5024 10.632 92.4304 10.8L85.6984 25.632C85.3144 26.496 84.7024 26.952 83.8624 27C83.4064 27.072 82.9624 26.988 82.5304 26.748C82.1224 26.508 81.8104 26.136 81.5944 25.632L74.8984 10.8C74.8504 10.68 74.7904 10.524 74.7184 10.332C74.6704 10.14 74.6464 9.912 74.6464 9.648C74.6464 9.216 74.8384 8.796 75.2224 8.388C75.6064 7.956 76.1224 7.74 76.7704 7.74ZM110.413 7.74C111.037 7.74 111.553 7.956 111.961 8.388C112.369 8.796 112.573 9.312 112.573 9.936V25.236C112.573 27.444 112.153 29.196 111.313 30.492C110.497 31.812 109.393 32.76 108.001 33.336C106.609 33.912 105.049 34.2 103.321 34.2C102.553 34.2 101.737 34.14 100.873 34.02C100.009 33.9 99.3013 33.72 98.7493 33.48C98.0293 33.168 97.5253 32.772 97.2373 32.292C96.9733 31.836 96.9253 31.344 97.0933 30.816C97.3093 30.12 97.6573 29.64 98.1373 29.376C98.6173 29.136 99.1213 29.112 99.6493 29.304C100.033 29.424 100.537 29.604 101.161 29.844C101.785 30.108 102.505 30.24 103.321 30.24C104.425 30.24 105.337 30.084 106.057 29.772C106.801 29.484 107.353 28.98 107.713 28.26C108.097 27.564 108.289 26.604 108.289 25.38V22.968L109.045 23.832C108.637 24.624 108.121 25.284 107.497 25.812C106.897 26.316 106.177 26.7 105.337 26.964C104.497 27.228 103.537 27.36 102.457 27.36C101.185 27.36 100.069 27.072 99.1093 26.496C98.1733 25.896 97.4413 25.08 96.9133 24.048C96.3853 22.992 96.1213 21.792 96.1213 20.448V9.936C96.1213 9.312 96.3253 8.796 96.7333 8.388C97.1413 7.956 97.6573 7.74 98.2812 7.74C98.9053 7.74 99.4213 7.956 99.8293 8.388C100.237 8.796 100.441 9.312 100.441 9.936V19.152C100.441 20.712 100.777 21.816 101.449 22.464C102.145 23.088 103.105 23.4 104.329 23.4C105.169 23.4 105.877 23.244 106.453 22.932C107.029 22.596 107.473 22.116 107.785 21.492C108.097 20.844 108.253 20.064 108.253 19.152V9.936C108.253 9.312 108.457 8.796 108.865 8.388C109.273 7.956 109.789 7.74 110.413 7.74ZM129.526 23.04C130.102 23.04 130.582 23.232 130.966 23.616C131.35 23.976 131.542 24.444 131.542 25.02C131.542 25.572 131.35 26.04 130.966 26.424C130.582 26.808 130.102 27 129.526 27H117.934C117.334 27 116.854 26.784 116.494 26.352C116.134 25.92 115.966 25.488 115.99 25.056C116.014 24.696 116.062 24.384 116.134 24.12C116.206 23.832 116.386 23.508 116.674 23.148L125.638 11.556L125.566 12.06H118.258C117.682 12.06 117.202 11.868 116.818 11.484C116.434 11.1 116.242 10.62 116.242 10.044C116.242 9.492 116.434 9.036 116.818 8.676C117.202 8.292 117.682 8.1 118.258 8.1H129.346C129.898 8.1 130.366 8.304 130.75 8.712C131.134 9.12 131.302 9.636 131.254 10.26C131.23 10.5 131.182 10.74 131.11 10.98C131.062 11.22 130.906 11.508 130.642 11.844L121.822 23.256V23.04H129.526Z" fill="white"/>
</svg>
